<?xml version="1.0" encoding="utf-8"?>
<!-- Generator: Adobe Illustrator 25.0.1, SVG Export Plug-In . SVG Version: 6.00 Build 0)  -->
<svg version="1.1" id="Layer_1" xmlns="http://www.w3.org/2000/svg" xmlns:xlink="http://www.w3.org/1999/xlink" x="0px" y="0px"
	 viewBox="0 0 216 216" style="enable-background:new 0 0 216 216;" xml:space="preserve">
<style type="text/css">
	.st0{opacity:0.4;}
	.st1{fill:#F0C07C;}
	.st2{fill:#EC9FB7;}
	.st3{fill:#E68781;}
	.st4{opacity:0.95;fill:#6F72A7;enable-background:new    ;}
</style>
<g id="yellow">
</g>
<g id="pink">
</g>
<g id="red">
</g>
<g id="blue" class="st0">
	<g>
		<polygon class="st1" points="-2.3,-1.5 -2.3,217.5 29.5,217.5 29.5,25.9 92.5,175 124.3,175 187,25.9 187,217.5 218.3,217.5 
			218.3,-1.5 170.4,-1.5 108.2,147.8 46.6,-1.5 		"/>
		<polygon class="st2" points="-2.3,-1.5 -2.3,37.9 14.7,37.9 14.7,180.4 -2.3,180.4 -2.3,217.5 74,217.5 74,180.4 59.6,180.4 
			59.4,99.7 94.6,217.5 124.5,217.5 160.5,99.7 160.5,180.4 148,180.4 148,217.5 218.3,217.5 218.3,180.4 205,180.4 205,37.9 
			218.3,37.9 218.3,-1.5 140.5,-1.5 111.3,146.4 80,-1.5 		"/>
		<polygon class="st3" points="-2.3,6.5 -2.3,37.9 14.7,37.9 14.7,180.4 -2.3,180.4 -2.3,209.7 29.5,209.7 29.5,25.9 92.4,175 
			124.1,175 187,25.9 187,209.7 218.3,209.7 218.3,180.4 205,180.4 205,37.9 218.3,37.9 218.3,-1.5 170.8,-1.5 108.4,147.5 
			46.1,-1.5 -2.3,-1.5 		"/>
		<polygon class="st4" points="-2.3,-1.5 -2.3,6.5 29.5,6.5 29.5,209.7 -2.3,209.7 -2.3,217.5 74,217.5 74,209.7 36.3,209.7 
			36.3,20.9 94.6,217.5 101.7,217.5 166.8,6.5 166.8,209.7 148,209.7 148,217.5 218.3,217.5 218.3,209.7 198.7,209.7 198.7,6.5 
			218.3,6.5 218.3,-1.5 157.8,-1.5 111.4,152.8 70.7,-1.5 		"/>
	</g>
</g>
</svg>
