<?xml version="1.0" encoding="utf-8"?>
<!-- Generator: Adobe Illustrator 25.0.0, SVG Export Plug-In . SVG Version: 6.00 Build 0)  -->
<svg version="1.1" id="Layer_1" xmlns="http://www.w3.org/2000/svg" xmlns:xlink="http://www.w3.org/1999/xlink" x="0px" y="0px"
	 viewBox="0 0 216 216" style="enable-background:new 0 0 216 216;" xml:space="preserve">
<style type="text/css">
	.st0{opacity:0.4;}
	.st1{fill:#F0C07C;}
	.st2{fill:#EC9FB7;}
	.st3{fill:#E68781;}
	.st4{opacity:0.95;fill:#6F72A7;enable-background:new    ;}
</style>
<g id="yellow">
</g>
<g id="pink">
</g>
<g id="red">
</g>
<g id="blue" class="st0">
	<g>
		<polygon class="st1" points="4.07,3.99 4.07,213.03 34.1,213.03 34.1,30.14 93.48,172.51 123.49,172.51 182.7,30.14 182.7,213.03 
			212.23,213.03 212.23,3.99 167.06,3.99 108.31,146.51 50.21,3.99 		"/>
		<polygon class="st2" points="4.07,3.99 4.07,41.61 20.1,41.61 20.1,177.62 4.07,177.62 4.07,213.03 76.04,213.03 76.04,177.62 
			62.45,177.65 62.27,100.56 95.54,213.03 123.68,213.03 157.65,100.56 157.65,177.62 145.93,177.62 145.93,213.03 212.23,213.03 
			212.23,177.62 199.71,177.61 199.71,41.61 212.23,41.61 212.23,3.99 138.81,3.99 111.31,145.17 81.76,3.99 		"/>
		<polygon class="st3" points="4.07,11.56 4.07,41.61 20.1,41.61 20.1,177.62 4.07,177.62 4.07,205.58 34.1,205.58 34.1,30.14 
			93.43,172.51 123.3,172.51 182.7,30.14 182.7,205.58 212.23,205.58 212.23,177.62 199.71,177.62 199.71,41.61 212.23,41.61 
			212.23,3.99 167.43,3.99 108.5,146.2 49.74,3.99 4.07,3.99 		"/>
		<polygon class="st4" points="4.07,3.99 4.07,11.56 34.1,11.56 34.1,205.58 4.07,205.58 4.07,213.03 76.04,213.03 76.04,205.58 
			40.47,205.58 40.47,25.31 95.54,213.03 102.16,213.03 163.63,11.56 163.63,205.58 145.93,205.58 145.93,213.03 212.23,213.03 
			212.23,205.58 193.7,205.58 193.7,11.56 212.23,11.56 212.23,3.99 155.15,3.99 111.39,151.31 72.96,3.99 		"/>
	</g>
</g>
</svg>
