<svg xmlns="http://www.w3.org/2000/svg" xmlns:xlink="http://www.w3.org/1999/xlink" width="37.68" height="37.838" viewBox="0 0 37.68 37.838"><defs><clipPath id="a"><rect width="37.68" height="37.838" fill="none"/></clipPath></defs><g opacity="0.85"><g clip-path="url(#a)"><path d="M29.5,0,18.868,25.8,8.352,0H0V37.838H5.436V4.733L16.184,30.5h5.432L32.333,4.733V37.838h5.346V0Z" transform="translate(0 0)" fill="#f0b266"/><path d="M24.389,0,19.412,25.554,14.062,0H0V6.81H2.9V31.428H0v6.41H13.027v-6.41l-2.459.006L10.534,17.48l6.022,20.358H21.65L27.8,17.48V31.428h-2.12v6.41h12v-6.41H35.412V6.81H37.68V0Z" transform="translate(0 0)" fill="#e38ba9"/><path d="M29.57,0,18.9,25.741,8.267,0H0V6.81H2.9V31.428H0V36.49H5.436V4.733L16.174,30.5h5.407L32.333,4.733V36.49H37.68V31.428H35.413V6.81H37.68V0Z" transform="translate(0 0)" fill="#de716d"/><g clip-path="url(#a)"><g opacity="0.95"><g clip-path="url(#a)"><path d="M0,0v1.37H5.436V36.49H0v1.348H13.028V36.49H6.589V3.858l9.968,33.979h1.2L28.882,1.369V36.49h-3.2v1.348h12V36.49H34.325V1.369H37.68V0H27.346l-7.92,26.665L12.469,0Z" transform="translate(0 0)" fill="#545f97"/></g></g></g></g></g></svg>