<svg xmlns="http://www.w3.org/2000/svg" xmlns:xlink="http://www.w3.org/1999/xlink" width="39" height="38" viewBox="0 0 39 38"><defs><clipPath id="a"><rect width="39" height="38" transform="translate(0 0)" fill="none"/></clipPath></defs><g transform="translate(0 -0.194)"><g transform="translate(0 0.194)" clip-path="url(#a)"><path d="M4.34,38.139H34.727A4.29,4.29,0,0,0,39.068,33.9V4.238A4.29,4.29,0,0,0,34.727,0H4.34A4.291,4.291,0,0,0,0,4.238V33.9A4.291,4.291,0,0,0,4.34,38.139" transform="translate(0.001 -0.139)" fill="#545f97" fill-rule="evenodd"/><path d="M39.594,38.922H33.8V29.283c0-2.643-1.029-4.12-3.171-4.12-2.332,0-3.549,1.537-3.549,4.12v9.639H21.489V20.56h5.588v2.473A6.577,6.577,0,0,1,32.748,20c3.99,0,6.847,2.378,6.847,7.3ZM14.823,18.155a3.389,3.389,0,1,1,3.444-3.389,3.417,3.417,0,0,1-3.444,3.389M11.938,38.922h5.826V20.56H11.938Z" transform="translate(-5.952 -6.22)" fill="#fff" fill-rule="evenodd"/></g></g></svg>